<svg width="68" height="12" viewBox="0 0 68 12" fill="none" xmlns="http://www.w3.org/2000/svg">
<rect opacity="0.35" x="43.5" y="0.833252" width="21" height="10.3333" rx="2.16667" stroke="white"/>
<path opacity="0.4" d="M66 4V8C66.8047 7.66122 67.328 6.87313 67.328 6C67.328 5.12687 66.8047 4.33878 66 4Z" fill="white"/>
<rect x="45" y="2.33325" width="18" height="7.33333" rx="1.33333" fill="white"/>
<path fill-rule="evenodd" clip-rule="evenodd" d="M30.3305 2.60789C32.5463 2.60799 34.6775 3.45943 36.2835 4.98623C36.4044 5.1041 36.5977 5.10261 36.7168 4.98289L37.8728 3.81623C37.9331 3.7555 37.9667 3.67325 37.9662 3.58767C37.9657 3.50209 37.9311 3.42024 37.8701 3.36023C33.655 -0.67932 27.0052 -0.67932 22.7901 3.36023C22.7291 3.4202 22.6944 3.50202 22.6939 3.5876C22.6933 3.67318 22.7269 3.75546 22.7871 3.81623L23.9435 4.98289C24.0625 5.1028 24.2559 5.10428 24.3768 4.98623C25.9829 3.45933 28.1143 2.60789 30.3305 2.60789ZM30.3305 6.40356C31.5479 6.40349 32.722 6.85602 33.6245 7.67323C33.7465 7.78921 33.9388 7.78669 34.0578 7.66756L35.2125 6.50089C35.2733 6.4397 35.307 6.35668 35.3061 6.27042C35.3052 6.18415 35.2698 6.10184 35.2078 6.04189C32.4596 3.48551 28.2037 3.48551 25.4555 6.04189C25.3934 6.10184 25.358 6.18419 25.3571 6.27049C25.3563 6.35678 25.3902 6.43979 25.4511 6.50089L26.6055 7.66756C26.7244 7.78669 26.9167 7.78921 27.0388 7.67323C27.9407 6.85656 29.1138 6.40406 30.3305 6.40356ZM32.6434 8.95738C32.6452 9.04389 32.6112 9.12729 32.5495 9.18789L30.5521 11.2036C30.4936 11.2628 30.4137 11.2961 30.3305 11.2961C30.2472 11.2961 30.1673 11.2628 30.1088 11.2036L28.1111 9.18789C28.0494 9.12724 28.0155 9.04381 28.0173 8.95731C28.0191 8.8708 28.0566 8.78888 28.1208 8.73089C29.3964 7.65201 31.2645 7.65201 32.5401 8.73089C32.6043 8.78893 32.6417 8.87087 32.6434 8.95738Z" fill="white"/>
<path fill-rule="evenodd" clip-rule="evenodd" d="M16.6665 0.666504H15.6665C15.1142 0.666504 14.6665 1.11422 14.6665 1.6665V10.3332C14.6665 10.8855 15.1142 11.3332 15.6665 11.3332H16.6665C17.2188 11.3332 17.6665 10.8855 17.6665 10.3332V1.6665C17.6665 1.11422 17.2188 0.666504 16.6665 0.666504ZM10.9998 2.99984H11.9998C12.5521 2.99984 12.9998 3.44755 12.9998 3.99984V10.3332C12.9998 10.8855 12.5521 11.3332 11.9998 11.3332H10.9998C10.4476 11.3332 9.99984 10.8855 9.99984 10.3332V3.99984C9.99984 3.44755 10.4476 2.99984 10.9998 2.99984ZM7.33317 5.33317H6.33317C5.78089 5.33317 5.33317 5.78089 5.33317 6.33317V10.3332C5.33317 10.8855 5.78089 11.3332 6.33317 11.3332H7.33317C7.88546 11.3332 8.33317 10.8855 8.33317 10.3332V6.33317C8.33317 5.78089 7.88546 5.33317 7.33317 5.33317ZM2.6665 7.33317H1.6665C1.11422 7.33317 0.666504 7.78089 0.666504 8.33317V10.3332C0.666504 10.8855 1.11422 11.3332 1.6665 11.3332H2.6665C3.21879 11.3332 3.6665 10.8855 3.6665 10.3332V8.33317C3.6665 7.78089 3.21879 7.33317 2.6665 7.33317Z" fill="white"/>
</svg>
